<?xml version="1.0" encoding="UTF-8"?>
<!DOCTYPE svg PUBLIC "-//W3C//DTD SVG 1.1//EN" "http://www.w3.org/Graphics/SVG/1.1/DTD/svg11.dtd">
<svg xmlns="http://www.w3.org/2000/svg" version="1.1" width="500px" height="500px" style="shape-rendering:geometricPrecision; text-rendering:geometricPrecision; image-rendering:optimizeQuality; fill-rule:evenodd; clip-rule:evenodd" xmlns:xlink="http://www.w3.org/1999/xlink">
<g><path style="opacity:0.957" fill="#9c005d" d="M 272.5,208.5 C 271.662,208.158 271.328,207.492 271.5,206.5C 278.164,192.499 283.83,178.165 288.5,163.5C 290.074,161.898 290.741,159.898 290.5,157.5C 291.332,151.516 291.499,145.516 291,139.5C 290.127,135.475 287.961,132.475 284.5,130.5C 282.883,129.028 280.883,128.361 278.5,128.5C 275.562,128.568 272.895,129.234 270.5,130.5C 263.56,132.975 256.393,134.975 249,136.5C 239.633,134.903 230.8,131.737 222.5,127C 218.553,125.846 214.553,125.013 210.5,124.5C 213.625,123.521 216.958,123.187 220.5,123.5C 227.464,125.146 234.131,127.646 240.5,131C 244.833,131.667 249.167,131.667 253.5,131C 263.318,126.505 273.485,123.005 284,120.5C 301.037,122.869 307.371,132.535 303,149.5C 297.528,171.783 287.361,191.45 272.5,208.5 Z"/></g>
<g><path style="opacity:0.488" fill="#a60063" d="M 220.5,123.5 C 216.958,123.187 213.625,123.521 210.5,124.5C 209.448,124.649 208.448,124.483 207.5,124C 207.833,123.667 208.167,123.333 208.5,123C 212.689,122.188 216.689,122.355 220.5,123.5 Z"/></g>
<g><path style="opacity:0.969" fill="#9c005d" d="M 205.5,126.5 C 208.455,127.159 211.455,127.492 214.5,127.5C 222.56,129.196 229.893,132.529 236.5,137.5C 236.333,137.833 236.167,138.167 236,138.5C 225.655,133.804 215.822,134.638 206.5,141C 202.086,147.077 200.419,153.91 201.5,161.5C 201.371,169.98 202.371,178.313 204.5,186.5C 204.723,190.162 205.723,193.495 207.5,196.5C 210.159,203.608 213.326,210.608 217,217.5C 219.047,221.048 221.88,223.715 225.5,225.5C 227.5,225.5 228.5,224.5 228.5,222.5C 229.733,217.707 231.733,213.374 234.5,209.5C 235.906,209.027 236.573,208.027 236.5,206.5C 237.906,206.027 238.573,205.027 238.5,203.5C 238.5,202.833 238.833,202.5 239.5,202.5C 240.906,202.027 241.573,201.027 241.5,199.5C 243.833,196.5 246.5,193.833 249.5,191.5C 251.027,191.573 252.027,190.906 252.5,189.5C 255.947,186.562 259.947,184.562 264.5,183.5C 267.152,183.59 269.485,182.924 271.5,181.5C 274.287,179.747 277.287,179.414 280.5,180.5C 273.151,183.672 265.818,187.172 258.5,191C 245.559,203.3 236.725,218.133 232,235.5C 230.136,238.207 227.636,239.041 224.5,238C 217.818,230.308 212.318,221.808 208,212.5C 202.779,200.723 198.112,188.723 194,176.5C 191.531,167.323 190.031,157.99 189.5,148.5C 189.4,142.223 191.4,136.89 195.5,132.5C 196.833,131.833 197.833,130.833 198.5,129.5C 200.176,127.166 202.509,126.166 205.5,126.5 Z"/></g>
<g><path style="opacity:0.357" fill="#b4006c" d="M 205.5,126.5 C 208.591,125.379 211.591,125.713 214.5,127.5C 211.455,127.492 208.455,127.159 205.5,126.5 Z"/></g>
<g><path style="opacity:0.571" fill="#b00069" d="M 284.5,130.5 C 279.888,129.806 275.222,129.806 270.5,130.5C 272.895,129.234 275.562,128.568 278.5,128.5C 280.883,128.361 282.883,129.028 284.5,130.5 Z"/></g>
<g><path style="opacity:0.463" fill="#b2006b" d="M 198.5,129.5 C 197.833,130.833 196.833,131.833 195.5,132.5C 195.5,130.5 196.5,129.5 198.5,129.5 Z"/></g>
<g><path style="opacity:0.761" fill="#af0069" d="M 290.5,157.5 C 290.741,159.898 290.074,161.898 288.5,163.5C 288.595,161.214 289.262,159.214 290.5,157.5 Z"/></g>
<g><path style="opacity:0.706" fill="#ab0066" d="M 271.5,181.5 C 269.485,182.924 267.152,183.59 264.5,183.5C 266.515,182.076 268.848,181.41 271.5,181.5 Z"/></g>
<g><path style="opacity:0.702" fill="#ae0068" d="M 204.5,186.5 C 206.277,189.505 207.277,192.838 207.5,196.5C 205.723,193.495 204.723,190.162 204.5,186.5 Z"/></g>
<g><path style="opacity:0.545" fill="#b00069" d="M 252.5,189.5 C 252.027,190.906 251.027,191.573 249.5,191.5C 249.973,190.094 250.973,189.427 252.5,189.5 Z"/></g>
<g><path style="opacity:0.525" fill="#b4006c" d="M 241.5,199.5 C 241.573,201.027 240.906,202.027 239.5,202.5C 239.427,200.973 240.094,199.973 241.5,199.5 Z"/></g>
<g><path style="opacity:0.373" fill="#b1006a" d="M 238.5,203.5 C 238.573,205.027 237.906,206.027 236.5,206.5C 236.427,204.973 237.094,203.973 238.5,203.5 Z"/></g>
<g><path style="opacity:0.384" fill="#b00069" d="M 236.5,206.5 C 236.573,208.027 235.906,209.027 234.5,209.5C 234.427,207.973 235.094,206.973 236.5,206.5 Z"/></g>
<g><path style="opacity:0.361" fill="#a60063" d="M 271.5,206.5 C 271.328,207.492 271.662,208.158 272.5,208.5C 271.252,210.649 269.752,212.649 268,214.5C 268.329,211.505 269.496,208.838 271.5,206.5 Z"/></g>
<g><path style="opacity:0.4" fill="#b4006c" d="M 228.5,222.5 C 228.5,224.5 227.5,225.5 225.5,225.5C 226.167,224.167 227.167,223.167 228.5,222.5 Z"/></g>
<g><path style="opacity:0.907" fill="#9f005f" d="M 201.5,229.5 C 202.995,229.415 203.995,230.081 204.5,231.5C 199.474,248.747 192.974,265.413 185,281.5C 181.455,289.431 175.955,295.598 168.5,300C 164.409,301.227 160.909,300.394 158,297.5C 157.073,293.987 156.239,290.487 155.5,287C 156.367,275.195 157.533,263.361 159,251.5C 161.476,249.937 162.976,250.604 163.5,253.5C 161.536,266.429 161.036,279.429 162,292.5C 162.26,294.618 163.26,296.284 165,297.5C 171.792,292.037 177.126,285.37 181,277.5C 188.336,261.642 195.169,245.642 201.5,229.5 Z"/></g>
<g><path style="opacity:0.906" fill="#a00060" d="M 17.5,291.5 C 16.218,292.708 16.218,294.042 17.5,295.5C 18.1067,295.376 18.44,295.043 18.5,294.5C 26.5129,289.915 35.0129,286.249 44,283.5C 45.0588,283.63 45.8921,284.13 46.5,285C 35.0198,290.238 24.0198,296.238 13.5,303C 11.3927,303.854 10.0593,303.188 9.5,301C 15.4396,278.857 23.9396,257.69 35,237.5C 36.5445,236.179 37.7112,236.512 38.5,238.5C 30.9045,255.957 23.9045,273.624 17.5,291.5 Z"/></g>
<g><path style="opacity:0.872" fill="#9d005e" d="M 400.5,266.5 C 399.527,268.948 399.194,271.615 399.5,274.5C 400.791,274.737 401.791,274.404 402.5,273.5C 405.945,272.016 409.278,272.182 412.5,274C 408.701,275.73 404.701,276.896 400.5,277.5C 398.656,279.279 397.99,281.612 398.5,284.5C 398.5,285.5 398.5,286.5 398.5,287.5C 396.519,297.126 396.186,306.793 397.5,316.5C 398.404,317.209 398.737,318.209 398.5,319.5C 396.856,319.714 395.356,319.38 394,318.5C 392.845,314.928 392.012,311.261 391.5,307.5C 392.167,300.814 392.834,294.148 393.5,287.5C 394.473,285.052 394.806,282.385 394.5,279.5C 392.901,279.232 391.568,279.566 390.5,280.5C 386.048,282.541 381.382,284.208 376.5,285.5C 375.167,285.5 374.5,286.167 374.5,287.5C 372.222,294.001 369.555,300.335 366.5,306.5C 365.119,306 364.453,305 364.5,303.5C 365.441,299.012 366.775,294.679 368.5,290.5C 369.885,289.698 369.718,289.031 368,288.5C 367.235,288.57 366.735,288.903 366.5,289.5C 364.171,291.83 361.838,291.83 359.5,289.5C 362.526,286.987 365.86,284.987 369.5,283.5C 371.833,283.167 373.167,281.833 373.5,279.5C 379.734,263.869 388.401,249.702 399.5,237C 401.949,236.225 403.616,237.058 404.5,239.5C 403.166,248.502 401.833,257.502 400.5,266.5 Z M 395.5,270.5 C 394.691,272.028 394.024,273.694 393.5,275.5C 388.732,276.525 384.066,277.858 379.5,279.5C 379.5,278.5 379.5,277.5 379.5,276.5C 384.952,264.936 391.452,253.936 399,243.5C 397.414,252.368 396.247,261.368 395.5,270.5 Z"/></g>
<g><path style="opacity:0.806" fill="#a00060" d="M 439.5,269.5 C 438.292,270.234 436.959,270.567 435.5,270.5C 434.209,269.458 434.209,268.292 435.5,267C 437.134,266.506 438.801,266.34 440.5,266.5C 440.737,267.791 440.404,268.791 439.5,269.5 Z"/></g>
<g><path style="opacity:0.212" fill="#ae0068" d="M 400.5,266.5 C 399.99,269.388 400.656,271.721 402.5,273.5C 401.791,274.404 400.791,274.737 399.5,274.5C 399.194,271.615 399.527,268.948 400.5,266.5 Z"/></g>
<g><path style="opacity:0.004" fill="#b7006d" d="M 439.5,269.5 C 438.422,272.412 437.088,272.746 435.5,270.5C 436.959,270.567 438.292,270.234 439.5,269.5 Z"/></g>
<g><path style="opacity:0.725" fill="#9e005f" d="M 59.5,271.5 C 61.9032,271.393 63.7365,272.393 65,274.5C 66.0113,273.663 67.1779,273.33 68.5,273.5C 68.1074,279.358 67.4407,285.191 66.5,291C 66.5445,292.764 66.8778,294.431 67.5,296C 66.2161,296.684 65.0495,296.517 64,295.5C 63.6667,290.833 63.3333,286.167 63,281.5C 59.5283,285.816 55.3616,289.149 50.5,291.5C 47.7536,290.904 46.9202,289.237 48,286.5C 50.231,280.123 54.0643,275.123 59.5,271.5 Z M 58.5,275.5 C 59.6491,275.791 60.3158,276.624 60.5,278C 58.985,281.529 56.6517,284.529 53.5,287C 52.8333,287.667 52.1667,287.667 51.5,287C 53.4679,282.889 55.8012,279.055 58.5,275.5 Z"/></g>
<g><path style="opacity:0.72" fill="#9e005f" d="M 128.5,273.5 C 128.369,274.239 128.536,274.906 129,275.5C 130.011,274.663 131.178,274.33 132.5,274.5C 131.954,281.531 131.954,288.698 132.5,296C 129.617,296.795 128.117,295.629 128,292.5C 127.722,288.806 127.722,285.139 128,281.5C 124.799,285.036 121.299,288.203 117.5,291C 114.433,292.164 112.767,291.164 112.5,288C 114.302,280.197 118.802,274.697 126,271.5C 127.301,271.639 128.134,272.305 128.5,273.5 Z M 123.5,275.5 C 124.649,275.791 125.316,276.624 125.5,278C 123.796,281.88 121.129,285.046 117.5,287.5C 117.167,287.167 116.833,286.833 116.5,286.5C 118.465,282.548 120.798,278.881 123.5,275.5 Z"/></g>
<g><path style="opacity:0.784" fill="#9e005f" d="M 204.5,271.5 C 207.547,270.855 209.713,271.855 211,274.5C 212,273.167 213,273.167 214,274.5C 214.164,280.362 213.664,286.195 212.5,292C 212.559,293.436 212.892,294.769 213.5,296C 212.216,296.684 211.049,296.517 210,295.5C 209.667,290.833 209.333,286.167 209,281.5C 205.874,286.145 201.707,289.478 196.5,291.5C 193.754,290.904 192.92,289.237 194,286.5C 196.199,280.487 199.699,275.487 204.5,271.5 Z M 204.5,276.5 C 206.048,276.821 206.715,277.821 206.5,279.5C 204.157,282.207 201.823,284.874 199.5,287.5C 198.662,287.158 198.328,286.492 198.5,285.5C 199.756,281.984 201.756,278.984 204.5,276.5 Z"/></g>
<g><path style="opacity:0.713" fill="#9e005f" d="M 446.5,286.5 C 447.11,285.609 447.443,284.609 447.5,283.5C 449.316,281.882 450.649,279.882 451.5,277.5C 454.737,271.422 458.903,270.422 464,274.5C 465,273.167 466,273.167 467,274.5C 466.503,281.829 465.67,289.163 464.5,296.5C 463.201,295.91 462.368,294.91 462,293.5C 461.674,289.47 461.674,285.47 462,281.5C 458.799,285.036 455.299,288.203 451.5,291C 447.508,292.177 445.842,290.677 446.5,286.5 Z M 459.5,275.5 C 459.101,280.422 456.767,284.255 452.5,287C 451.668,287.688 451.002,287.521 450.5,286.5C 451.592,283.976 452.926,281.643 454.5,279.5C 455.906,279.027 456.573,278.027 456.5,276.5C 457.609,276.443 458.609,276.11 459.5,275.5 Z"/></g>
<g><path style="opacity:0.824" fill="#9c005d" d="M 91.5,290.5 C 92.5624,289.425 92.5624,288.425 91.5,287.5C 90.4777,287.855 89.811,288.522 89.5,289.5C 86.7232,291.019 84.7232,290.352 83.5,287.5C 83.6602,285.801 83.4935,284.134 83,282.5C 82.2828,283.044 81.7828,283.711 81.5,284.5C 78.9339,289.419 74.9339,291.752 69.5,291.5C 69.267,286.966 70.1003,282.632 72,278.5C 72.7096,277.027 73.8762,276.36 75.5,276.5C 74.5962,280.375 73.5962,284.208 72.5,288C 72.8333,288.167 73.1667,288.333 73.5,288.5C 76.4905,285.208 79.4905,281.874 82.5,278.5C 84.0709,277.691 85.7376,277.357 87.5,277.5C 87.1826,280.572 87.5159,283.572 88.5,286.5C 90.1933,284.973 92.0266,283.64 94,282.5C 95.3183,279.523 96.8183,276.69 98.5,274C 100.061,273.812 100.728,274.645 100.5,276.5C 99.4017,277.601 99.235,278.934 100,280.5C 102.127,278.886 103.627,276.886 104.5,274.5C 106.044,273.086 107.711,272.753 109.5,273.5C 110.833,275.833 110.833,278.167 109.5,280.5C 108.667,279.5 107.833,278.5 107,277.5C 103.379,281.91 99.8792,286.41 96.5,291C 95.3914,291.638 94.2247,292.138 93,292.5C 91.9701,292.164 91.4701,291.497 91.5,290.5 Z"/></g>
<g><path style="opacity:0.088" fill="#b4006c" d="M 128.5,273.5 C 130.099,273.232 131.432,273.566 132.5,274.5C 131.178,274.33 130.011,274.663 129,275.5C 128.536,274.906 128.369,274.239 128.5,273.5 Z"/></g>
<g><path style="opacity:0.867" fill="#9e005e" d="M 229.5,278.5 C 229.762,277.022 229.429,275.689 228.5,274.5C 227.478,274.855 226.811,275.522 226.5,276.5C 221.847,280.588 221.347,285.255 225,290.5C 230.542,285.289 236.375,280.456 242.5,276C 246.749,272.301 251.249,271.801 256,274.5C 251.667,288.332 246.834,301.998 241.5,315.5C 240.095,317.225 239.595,319.225 240,321.5C 241.095,320.307 241.928,318.973 242.5,317.5C 252.152,303.004 263.152,289.504 275.5,277C 276.448,276.517 277.448,276.351 278.5,276.5C 277.888,280.45 276.888,284.283 275.5,288C 275.833,288.167 276.167,288.333 276.5,288.5C 279.94,285.138 283.273,281.638 286.5,278C 287.793,277.51 289.127,277.343 290.5,277.5C 290.183,280.572 290.516,283.572 291.5,286.5C 293.258,285.872 294.758,284.872 296,283.5C 296.923,278.306 299.756,274.639 304.5,272.5C 308.149,273.539 309.316,275.872 308,279.5C 305.554,281.959 303.054,284.292 300.5,286.5C 302.088,289.257 304.421,290.09 307.5,289C 310.853,287.323 313.853,285.157 316.5,282.5C 314.821,288.187 310.654,291.52 304,292.5C 300.196,292.031 297.529,290.031 296,286.5C 290.296,292.636 286.962,291.636 286,283.5C 283.833,285.667 281.667,287.833 279.5,290C 277.323,291.202 274.989,291.702 272.5,291.5C 272.244,289.208 272.577,287.041 273.5,285C 272.668,284.312 272.002,284.479 271.5,285.5C 259.695,300.14 248.862,315.473 239,331.5C 233.658,335.845 231.325,334.512 232,327.5C 236.231,314.711 240.731,302.044 245.5,289.5C 246.043,289.44 246.376,289.107 246.5,288.5C 245.743,287.227 245.077,287.227 244.5,288.5C 241.315,288.98 238.481,288.314 236,286.5C 233,289.5 230,292.5 227,295.5C 226.73,302.612 223.23,305.945 216.5,305.5C 215.386,304.277 215.219,302.944 216,301.5C 218.139,299.194 219.639,296.527 220.5,293.5C 214.21,282.537 217.043,275.537 229,272.5C 233.282,273.997 233.615,276.331 230,279.5C 229.601,279.272 229.435,278.938 229.5,278.5 Z M 248.5,276.5 C 249.404,277.209 249.737,278.209 249.5,279.5C 247.807,282.19 245.473,284.19 242.5,285.5C 241.662,285.158 241.328,284.492 241.5,283.5C 242.803,281.858 244.136,280.191 245.5,278.5C 247.027,278.573 248.027,277.906 248.5,276.5 Z"/></g>
<g><path style="opacity:0.357" fill="#af0069" d="M 395.5,270.5 C 395.923,272.781 395.256,274.448 393.5,275.5C 394.024,273.694 394.691,272.028 395.5,270.5 Z"/></g>
<g><path style="opacity:0.843" fill="#9d005e" d="M 417.5,276.5 C 416.402,277.601 416.235,278.934 417,280.5C 417.717,279.956 418.217,279.289 418.5,278.5C 420.199,275.804 422.533,273.804 425.5,272.5C 428.976,274.859 429.309,277.526 426.5,280.5C 425.784,279.689 424.95,279.022 424,278.5C 420.056,282.875 416.223,287.375 412.5,292C 411.216,292.684 410.049,292.517 409,291.5C 410.091,285.622 412.091,279.956 415,274.5C 416.58,271.746 417.746,271.912 418.5,275C 418.43,275.765 418.097,276.265 417.5,276.5 Z"/></g>
<g><path style="opacity:0.773" fill="#9e005e" d="M 478.5,272.5 C 481.38,272.033 483.713,272.866 485.5,275C 483.964,279.065 482.464,279.231 481,275.5C 474.025,279.214 472.858,284.214 477.5,290.5C 482.467,285.688 487.8,281.354 493.5,277.5C 494.308,277.808 494.975,278.308 495.5,279C 490.333,284.167 485.167,289.333 480,294.5C 479.646,300.516 476.646,304.516 471,306.5C 469.701,305.91 468.868,304.91 468.5,303.5C 469.943,300.222 471.609,297.055 473.5,294C 467.473,284.933 469.14,277.767 478.5,272.5 Z"/></g>
<g><path style="opacity:0.672" fill="#a10060" d="M 322.5,273.5 C 324.199,273.34 325.866,273.506 327.5,274C 328.022,274.561 328.355,275.228 328.5,276C 317.409,293.218 319.742,295.551 335.5,283C 336.635,282.251 337.635,282.417 338.5,283.5C 333.292,290.94 326.292,294.274 317.5,293.5C 317.167,292.833 316.833,292.167 316.5,291.5C 318.833,286.833 321.167,282.167 323.5,277.5C 323.167,276.833 322.833,276.167 322.5,275.5C 320.902,276.485 319.235,276.651 317.5,276C 319.315,275.243 320.981,274.41 322.5,273.5 Z"/></g>
<g><path style="opacity:0.254" fill="#b00069" d="M 206.5,279.5 C 206.715,277.821 206.048,276.821 204.5,276.5C 204.811,275.522 205.478,274.855 206.5,274.5C 207.788,276.299 207.788,277.965 206.5,279.5 Z"/></g>
<g><path style="opacity:0.031" fill="#b8006e" d="M 229.5,278.5 C 228.778,277.449 227.778,276.782 226.5,276.5C 226.811,275.522 227.478,274.855 228.5,274.5C 229.429,275.689 229.762,277.022 229.5,278.5 Z"/></g>
<g><path style="opacity:0.059" fill="#bc0070" d="M 249.5,279.5 C 249.737,278.209 249.404,277.209 248.5,276.5C 249.368,274.375 250.368,274.209 251.5,276C 251.192,277.459 250.525,278.626 249.5,279.5 Z"/></g>
<g><path style="opacity:0.012" fill="#b9006f" d="M 459.5,275.5 C 458.609,276.11 457.609,276.443 456.5,276.5C 457.221,274.618 458.221,274.285 459.5,275.5 Z"/></g>
<g><path style="opacity:0.914" fill="#9e005f" d="M 435.5,283.5 C 434.539,285.265 434.205,287.265 434.5,289.5C 435.791,289.263 436.791,289.596 437.5,290.5C 435.712,291.622 433.712,291.789 431.5,291C 430.106,290.044 429.439,288.711 429.5,287C 430.466,283.77 431.633,280.603 433,277.5C 434.11,275.963 435.61,275.297 437.5,275.5C 437.435,278.428 436.768,281.095 435.5,283.5 Z"/></g>
<g><path style="opacity:0.059" fill="#b5006c" d="M 104.5,274.5 C 103.627,276.886 102.127,278.886 100,280.5C 99.235,278.934 99.4017,277.601 100.5,276.5C 100.435,276.938 100.601,277.272 101,277.5C 102.039,276.29 103.206,275.29 104.5,274.5 Z"/></g>
<g><path style="opacity:0.004" fill="#bd0071" d="M 248.5,276.5 C 248.027,277.906 247.027,278.573 245.5,278.5C 245.973,277.094 246.973,276.427 248.5,276.5 Z"/></g>
<g><path style="opacity:0.008" fill="#b9006e" d="M 456.5,276.5 C 456.573,278.027 455.906,279.027 454.5,279.5C 454.427,277.973 455.094,276.973 456.5,276.5 Z"/></g>
<g><path style="opacity:0.169" fill="#b8006e" d="M 417.5,276.5 C 417.328,277.492 417.662,278.158 418.5,278.5C 418.217,279.289 417.717,279.956 417,280.5C 416.235,278.934 416.402,277.601 417.5,276.5 Z"/></g>
<g><path style="opacity:0.086" fill="#b9006e" d="M 303.5,276.5 C 304.334,278.263 303.834,279.93 302,281.5C 301.387,279.505 301.887,277.838 303.5,276.5 Z"/></g>
<g><path style="opacity:0.392" fill="#b9006e" d="M 379.5,276.5 C 379.5,277.5 379.5,278.5 379.5,279.5C 378.923,280.773 378.257,280.773 377.5,279.5C 377.942,278.261 378.609,277.261 379.5,276.5 Z"/></g>
<g><path style="opacity:0.208" fill="#ba006f" d="M 373.5,279.5 C 373.167,281.833 371.833,283.167 369.5,283.5C 370.5,281.833 371.833,280.5 373.5,279.5 Z"/></g>
<g><path style="opacity:0.006" fill="#bb0070" d="M 400.5,277.5 C 399.935,279.952 399.268,282.285 398.5,284.5C 397.99,281.612 398.656,279.279 400.5,277.5 Z"/></g>
<g><path style="opacity:0.034" fill="#b9006e" d="M 83.5,287.5 C 82.8333,286.5 82.1667,285.5 81.5,284.5C 81.7828,283.711 82.2828,283.044 83,282.5C 83.4935,284.134 83.6602,285.801 83.5,287.5 Z"/></g>
<g><path style="opacity:0.094" fill="#b5006c" d="M 241.5,283.5 C 241.328,284.492 241.662,285.158 242.5,285.5C 241.698,286.885 241.031,286.718 240.5,285C 240.57,284.235 240.903,283.735 241.5,283.5 Z"/></g>
<g><path style="opacity:0.661" fill="#a60063" d="M 451.5,277.5 C 450.649,279.882 449.316,281.882 447.5,283.5C 446.167,284.167 445.167,285.167 444.5,286.5C 442.664,288.588 440.331,289.921 437.5,290.5C 436.791,289.596 435.791,289.263 434.5,289.5C 434.205,287.265 434.539,285.265 435.5,283.5C 435.215,285.288 435.548,286.955 436.5,288.5C 441.446,285.057 445.946,281.057 450,276.5C 450.383,277.056 450.883,277.389 451.5,277.5 Z"/></g>
<g><path style="opacity:0.051" fill="#bc0070" d="M 376.5,285.5 C 376.167,286.5 375.5,287.167 374.5,287.5C 374.5,286.167 375.167,285.5 376.5,285.5 Z"/></g>
<g><path style="opacity:0.582" fill="#a90065" d="M 390.5,280.5 C 391.568,279.566 392.901,279.232 394.5,279.5C 394.806,282.385 394.473,285.052 393.5,287.5C 393.5,285.167 393.5,282.833 393.5,280.5C 392.5,280.5 391.5,280.5 390.5,280.5 Z"/></g>
<g><path style="opacity:0.008" fill="#c00073" d="M 447.5,283.5 C 447.443,284.609 447.11,285.609 446.5,286.5C 445.833,286.5 445.167,286.5 444.5,286.5C 445.167,285.167 446.167,284.167 447.5,283.5 Z"/></g>
<g><path style="opacity:0.033" fill="#bc0070" d="M 198.5,285.5 C 198.328,286.492 198.662,287.158 199.5,287.5C 198.698,288.885 198.031,288.718 197.5,287C 197.57,286.235 197.903,285.735 198.5,285.5 Z"/></g>
<g><path style="opacity:0.451" fill="#bc0070" d="M 245.5,289.5 C 244.833,289.5 244.5,289.167 244.5,288.5C 245.077,287.227 245.743,287.227 246.5,288.5C 246.376,289.107 246.043,289.44 245.5,289.5 Z"/></g>
<g><path style="opacity:0.092" fill="#bb0070" d="M 91.5,290.5 C 90.8333,290.167 90.1667,289.833 89.5,289.5C 89.811,288.522 90.4777,287.855 91.5,287.5C 92.5624,288.425 92.5624,289.425 91.5,290.5 Z"/></g>
<g><path style="opacity:0.269" fill="#b9006e" d="M 366.5,289.5 C 366.735,288.903 367.235,288.57 368,288.5C 369.718,289.031 369.885,289.698 368.5,290.5C 367.833,290.167 367.167,289.833 366.5,289.5 Z"/></g>
<g><path style="opacity:0.231" fill="#bc0071" d="M 17.5,291.5 C 17.2627,292.791 17.596,293.791 18.5,294.5C 18.44,295.043 18.1067,295.376 17.5,295.5C 16.218,294.042 16.218,292.708 17.5,291.5 Z"/></g>
<g><path style="opacity:0.017" fill="#ba006f" d="M 398.5,287.5 C 397.908,297.156 397.575,306.822 397.5,316.5C 396.186,306.793 396.519,297.126 398.5,287.5 Z"/></g>
<g><path style="opacity:0.165" fill="#bc0070" d="M 474.5,299.5 C 475.713,300.497 475.546,301.497 474,302.5C 473.53,301.423 473.697,300.423 474.5,299.5 Z"/></g>
<g><path style="opacity:0.51" fill="#b6006d" d="M 222.5,299.5 C 223.525,299.897 223.692,300.563 223,301.5C 222.163,303.007 220.996,303.507 219.5,303C 220.71,301.961 221.71,300.794 222.5,299.5 Z"/></g>
<g><path style="opacity:0.286" fill="#b9006f" d="M 241.5,315.5 C 241.328,316.492 241.662,317.158 242.5,317.5C 241.928,318.973 241.095,320.307 240,321.5C 239.595,319.225 240.095,317.225 241.5,315.5 Z"/></g>
<g><path style="opacity:0.42" fill="#9d005e" d="M 141.5,348.5 C 150.158,347.327 153.992,350.994 153,359.5C 148.625,364.381 143.958,364.715 139,360.5C 136.696,355.855 137.529,351.855 141.5,348.5 Z M 142.5,351.5 C 148.496,350.333 150.996,352.666 150,358.5C 147,362.5 144,362.5 141,358.5C 140.391,355.935 140.891,353.601 142.5,351.5 Z"/></g>
<g><path style="opacity:0.501" fill="#9b005d" d="M 163.5,348.5 C 173.149,346.337 177.649,350.003 177,359.5C 176.167,360.5 175.333,361.5 174.5,362.5C 170.906,363.426 167.24,363.759 163.5,363.5C 163.5,358.5 163.5,353.5 163.5,348.5 Z M 171.5,351.5 C 175.5,354.5 175.5,357.5 171.5,360.5C 169.833,360.5 168.167,360.5 166.5,360.5C 166.5,357.5 166.5,354.5 166.5,351.5C 168.167,351.5 169.833,351.5 171.5,351.5 Z"/></g>
<g><path style="opacity:0.48" fill="#9d005e" d="M 190.5,348.5 C 201.055,347.871 204.388,352.371 200.5,362C 191.479,365.949 186.979,363.116 187,353.5C 187.997,351.677 189.164,350.01 190.5,348.5 Z M 191.5,351.5 C 197.496,350.333 199.996,352.666 199,358.5C 196,362.5 193,362.5 190,358.5C 189.391,355.935 189.891,353.601 191.5,351.5 Z"/></g>
<g><path style="opacity:0.524" fill="#9e005e" d="M 212.5,348.5 C 213.978,348.238 215.311,348.571 216.5,349.5C 218.427,352.35 220.594,355.017 223,357.5C 223.498,354.518 223.665,351.518 223.5,348.5C 224.5,348.5 225.5,348.5 226.5,348.5C 226.5,353.5 226.5,358.5 226.5,363.5C 225.127,363.657 223.793,363.49 222.5,363C 220.333,360.167 218.167,357.333 216,354.5C 215.502,357.482 215.335,360.482 215.5,363.5C 214.5,363.5 213.5,363.5 212.5,363.5C 212.5,358.5 212.5,353.5 212.5,348.5 Z"/></g>
<g><path style="opacity:0.521" fill="#97005a" d="M 247.5,350.5 C 245.833,350.5 244.167,350.5 242.5,350.5C 242.5,354.833 242.5,359.167 242.5,363.5C 240.586,360.316 239.92,356.649 240.5,352.5C 239.448,350.744 237.781,350.077 235.5,350.5C 237.048,349.206 239.048,348.539 241.5,348.5C 243.952,348.539 245.952,349.206 247.5,350.5 Z"/></g>
<g><path style="opacity:0.578" fill="#9f005f" d="M 260.5,348.5 C 267.283,347.213 271.283,349.88 272.5,356.5C 270.969,363.044 266.969,365.211 260.5,363C 257.419,361.688 255.752,359.355 255.5,356C 256.324,352.827 257.991,350.327 260.5,348.5 Z M 261.5,351.5 C 268.251,351.38 270.251,354.214 267.5,360C 259.749,361.091 257.749,358.258 261.5,351.5 Z"/></g>
<g><path style="opacity:0.407" fill="#96005a" d="M 284.5,348.5 C 283.903,353.294 284.57,357.627 286.5,361.5C 288.288,361.215 289.955,361.548 291.5,362.5C 288.572,363.484 285.572,363.817 282.5,363.5C 281.892,358.056 282.558,353.056 284.5,348.5 Z"/></g>
<g><path style="opacity:0.137" fill="#ac0067" d="M 284.5,348.5 C 285.22,352.73 285.887,357.063 286.5,361.5C 284.57,357.627 283.903,353.294 284.5,348.5 Z"/></g>
<g><path style="opacity:0.556" fill="#9e005e" d="M 304.5,348.5 C 313.108,347.276 316.941,350.943 316,359.5C 311.491,364.417 306.658,364.751 301.5,360.5C 299.562,355.694 300.562,351.694 304.5,348.5 Z M 305.5,351.5 C 311.168,350.671 313.668,353.005 313,358.5C 310,362.5 307,362.5 304,358.5C 303.167,355.829 303.667,353.496 305.5,351.5 Z"/></g>
<g><path style="opacity:0.653" fill="#a30061" d="M 329.5,348.5 C 332.187,348.336 334.854,348.503 337.5,349C 338.337,350.011 338.67,351.178 338.5,352.5C 336.801,352.38 335.135,352.046 333.5,351.5C 328.426,352.976 327.426,355.809 330.5,360C 332.134,360.494 333.801,360.66 335.5,360.5C 335.116,358.335 335.783,356.668 337.5,355.5C 340.128,357.915 340.128,360.415 337.5,363C 330.631,365.069 326.297,362.736 324.5,356C 325.33,352.809 326.997,350.309 329.5,348.5 Z"/></g>
<g><path style="opacity:0.511" fill="#9f005f" d="M 354.5,348.5 C 355.833,348.5 357.167,348.5 358.5,348.5C 360.364,353.426 362.031,358.426 363.5,363.5C 361.318,361.912 358.818,360.912 356,360.5C 353.546,360.759 351.546,361.759 350,363.5C 349.5,363.167 349,362.833 348.5,362.5C 350.515,357.807 352.515,353.141 354.5,348.5 Z M 355.5,353.5 C 356.837,354.315 357.837,355.482 358.5,357C 357.056,357.781 355.723,357.614 354.5,356.5C 355.127,355.583 355.461,354.583 355.5,353.5 Z"/></g>
<g><path style="opacity:0.316" fill="#a80064" d="M 171.5,351.5 C 169.833,351.5 168.167,351.5 166.5,351.5C 166.5,354.5 166.5,357.5 166.5,360.5C 168.167,360.5 169.833,360.5 171.5,360.5C 169.735,361.461 167.735,361.795 165.5,361.5C 165.5,357.833 165.5,354.167 165.5,350.5C 167.735,350.205 169.735,350.539 171.5,351.5 Z"/></g>
<g><path style="opacity:0.106" fill="#b4006b" d="M 235.5,350.5 C 237.781,350.077 239.448,350.744 240.5,352.5C 238.694,351.976 237.028,351.309 235.5,350.5 Z"/></g>
<g><path style="opacity:0.07" fill="#af0069" d="M 247.5,350.5 C 246.432,351.434 245.099,351.768 243.5,351.5C 243.817,355.702 243.483,359.702 242.5,363.5C 242.5,359.167 242.5,354.833 242.5,350.5C 244.167,350.5 245.833,350.5 247.5,350.5 Z"/></g>
</svg>
